<svg xmlns="http://www.w3.org/2000/svg" width="774" height="202" viewBox="0 0 774 202">
<rect width="774" height="202" fill="#0d1117"/>
<defs>
<clipPath id="bulletclip"><rect width="774" height="202"/></clipPath>
<symbol id="a1" viewBox="0 0 11 8" preserveAspectRatio="xMidYMid meet"><rect x="2" y="0" width="1" height="1" fill="currentColor"/><rect x="8" y="0" width="1" height="1" fill="currentColor"/><rect x="3" y="1" width="1" height="1" fill="currentColor"/><rect x="7" y="1" width="1" height="1" fill="currentColor"/><rect x="1" y="2" width="1" height="1" fill="currentColor"/><rect x="2" y="2" width="1" height="1" fill="currentColor"/><rect x="3" y="2" width="1" height="1" fill="currentColor"/><rect x="4" y="2" width="1" height="1" fill="currentColor"/><rect x="5" y="2" width="1" height="1" fill="currentColor"/><rect x="6" y="2" width="1" height="1" fill="currentColor"/><rect x="7" y="2" width="1" height="1" fill="currentColor"/><rect x="8" y="2" width="1" height="1" fill="currentColor"/><rect x="9" y="2" width="1" height="1" fill="currentColor"/><rect x="0" y="3" width="1" height="1" fill="currentColor"/><rect x="1" y="3" width="1" height="1" fill="currentColor"/><rect x="3" y="3" width="1" height="1" fill="currentColor"/><rect x="4" y="3" width="1" height="1" fill="currentColor"/><rect x="5" y="3" width="1" height="1" fill="currentColor"/><rect x="6" y="3" width="1" height="1" fill="currentColor"/><rect x="7" y="3" width="1" height="1" fill="currentColor"/><rect x="9" y="3" width="1" height="1" fill="currentColor"/><rect x="10" y="3" width="1" height="1" fill="currentColor"/><rect x="0" y="4" width="1" height="1" fill="currentColor"/><rect x="1" y="4" width="1" height="1" fill="currentColor"/><rect x="2" y="4" width="1" height="1" fill="currentColor"/><rect x="3" y="4" width="1" height="1" fill="currentColor"/><rect x="4" y="4" width="1" height="1" fill="currentColor"/><rect x="5" y="4" width="1" height="1" fill="currentColor"/><rect x="6" y="4" width="1" height="1" fill="currentColor"/><rect x="7" y="4" width="1" height="1" fill="currentColor"/><rect x="8" y="4" width="1" height="1" fill="currentColor"/><rect x="9" y="4" width="1" height="1" fill="currentColor"/><rect x="10" y="4" width="1" height="1" fill="currentColor"/><rect x="1" y="5" width="1" height="1" fill="currentColor"/><rect x="3" y="5" width="1" height="1" fill="currentColor"/><rect x="5" y="5" width="1" height="1" fill="currentColor"/><rect x="7" y="5" width="1" height="1" fill="currentColor"/><rect x="9" y="5" width="1" height="1" fill="currentColor"/><rect x="0" y="6" width="1" height="1" fill="currentColor"/><rect x="4" y="6" width="1" height="1" fill="currentColor"/><rect x="6" y="6" width="1" height="1" fill="currentColor"/><rect x="10" y="6" width="1" height="1" fill="currentColor"/></symbol>
<symbol id="a2" viewBox="0 0 11 8" preserveAspectRatio="xMidYMid meet"><rect x="1" y="0" width="1" height="1" fill="currentColor"/><rect x="9" y="0" width="1" height="1" fill="currentColor"/><rect x="2" y="1" width="1" height="1" fill="currentColor"/><rect x="4" y="1" width="1" height="1" fill="currentColor"/><rect x="5" y="1" width="1" height="1" fill="currentColor"/><rect x="6" y="1" width="1" height="1" fill="currentColor"/><rect x="8" y="1" width="1" height="1" fill="currentColor"/><rect x="1" y="2" width="1" height="1" fill="currentColor"/><rect x="2" y="2" width="1" height="1" fill="currentColor"/><rect x="3" y="2" width="1" height="1" fill="currentColor"/><rect x="4" y="2" width="1" height="1" fill="currentColor"/><rect x="5" y="2" width="1" height="1" fill="currentColor"/><rect x="6" y="2" width="1" height="1" fill="currentColor"/><rect x="7" y="2" width="1" height="1" fill="currentColor"/><rect x="8" y="2" width="1" height="1" fill="currentColor"/><rect x="9" y="2" width="1" height="1" fill="currentColor"/><rect x="0" y="3" width="1" height="1" fill="currentColor"/><rect x="1" y="3" width="1" height="1" fill="currentColor"/><rect x="3" y="3" width="1" height="1" fill="currentColor"/><rect x="5" y="3" width="1" height="1" fill="currentColor"/><rect x="7" y="3" width="1" height="1" fill="currentColor"/><rect x="9" y="3" width="1" height="1" fill="currentColor"/><rect x="10" y="3" width="1" height="1" fill="currentColor"/><rect x="0" y="4" width="1" height="1" fill="currentColor"/><rect x="1" y="4" width="1" height="1" fill="currentColor"/><rect x="2" y="4" width="1" height="1" fill="currentColor"/><rect x="3" y="4" width="1" height="1" fill="currentColor"/><rect x="4" y="4" width="1" height="1" fill="currentColor"/><rect x="5" y="4" width="1" height="1" fill="currentColor"/><rect x="6" y="4" width="1" height="1" fill="currentColor"/><rect x="7" y="4" width="1" height="1" fill="currentColor"/><rect x="8" y="4" width="1" height="1" fill="currentColor"/><rect x="9" y="4" width="1" height="1" fill="currentColor"/><rect x="10" y="4" width="1" height="1" fill="currentColor"/><rect x="0" y="5" width="1" height="1" fill="currentColor"/><rect x="2" y="5" width="1" height="1" fill="currentColor"/><rect x="3" y="5" width="1" height="1" fill="currentColor"/><rect x="5" y="5" width="1" height="1" fill="currentColor"/><rect x="7" y="5" width="1" height="1" fill="currentColor"/><rect x="8" y="5" width="1" height="1" fill="currentColor"/><rect x="10" y="5" width="1" height="1" fill="currentColor"/><rect x="0" y="6" width="1" height="1" fill="currentColor"/><rect x="10" y="6" width="1" height="1" fill="currentColor"/></symbol>
<symbol id="a3" viewBox="0 0 11 8" preserveAspectRatio="xMidYMid meet"><rect x="2" y="0" width="1" height="1" fill="currentColor"/><rect x="3" y="0" width="1" height="1" fill="currentColor"/><rect x="4" y="0" width="1" height="1" fill="currentColor"/><rect x="5" y="0" width="1" height="1" fill="currentColor"/><rect x="6" y="0" width="1" height="1" fill="currentColor"/><rect x="7" y="0" width="1" height="1" fill="currentColor"/><rect x="8" y="0" width="1" height="1" fill="currentColor"/><rect x="1" y="1" width="1" height="1" fill="currentColor"/><rect x="2" y="1" width="1" height="1" fill="currentColor"/><rect x="3" y="1" width="1" height="1" fill="currentColor"/><rect x="4" y="1" width="1" height="1" fill="currentColor"/><rect x="5" y="1" width="1" height="1" fill="currentColor"/><rect x="6" y="1" width="1" height="1" fill="currentColor"/><rect x="7" y="1" width="1" height="1" fill="currentColor"/><rect x="8" y="1" width="1" height="1" fill="currentColor"/><rect x="9" y="1" width="1" height="1" fill="currentColor"/><rect x="0" y="2" width="1" height="1" fill="currentColor"/><rect x="1" y="2" width="1" height="1" fill="currentColor"/><rect x="3" y="2" width="1" height="1" fill="currentColor"/><rect x="5" y="2" width="1" height="1" fill="currentColor"/><rect x="7" y="2" width="1" height="1" fill="currentColor"/><rect x="9" y="2" width="1" height="1" fill="currentColor"/><rect x="10" y="2" width="1" height="1" fill="currentColor"/><rect x="0" y="3" width="1" height="1" fill="currentColor"/><rect x="1" y="3" width="1" height="1" fill="currentColor"/><rect x="2" y="3" width="1" height="1" fill="currentColor"/><rect x="3" y="3" width="1" height="1" fill="currentColor"/><rect x="4" y="3" width="1" height="1" fill="currentColor"/><rect x="5" y="3" width="1" height="1" fill="currentColor"/><rect x="6" y="3" width="1" height="1" fill="currentColor"/><rect x="7" y="3" width="1" height="1" fill="currentColor"/><rect x="8" y="3" width="1" height="1" fill="currentColor"/><rect x="9" y="3" width="1" height="1" fill="currentColor"/><rect x="10" y="3" width="1" height="1" fill="currentColor"/><rect x="1" y="4" width="1" height="1" fill="currentColor"/><rect x="2" y="4" width="1" height="1" fill="currentColor"/><rect x="4" y="4" width="1" height="1" fill="currentColor"/><rect x="5" y="4" width="1" height="1" fill="currentColor"/><rect x="6" y="4" width="1" height="1" fill="currentColor"/><rect x="8" y="4" width="1" height="1" fill="currentColor"/><rect x="9" y="4" width="1" height="1" fill="currentColor"/><rect x="2" y="5" width="1" height="1" fill="currentColor"/><rect x="5" y="5" width="1" height="1" fill="currentColor"/><rect x="8" y="5" width="1" height="1" fill="currentColor"/><rect x="1" y="6" width="1" height="1" fill="currentColor"/><rect x="9" y="6" width="1" height="1" fill="currentColor"/></symbol>
<symbol id="a4" viewBox="0 0 11 8" preserveAspectRatio="xMidYMid meet"><rect x="0" y="0" width="1" height="1" fill="currentColor"/><rect x="3" y="0" width="1" height="1" fill="currentColor"/><rect x="7" y="0" width="1" height="1" fill="currentColor"/><rect x="10" y="0" width="1" height="1" fill="currentColor"/><rect x="1" y="1" width="1" height="1" fill="currentColor"/><rect x="4" y="1" width="1" height="1" fill="currentColor"/><rect x="6" y="1" width="1" height="1" fill="currentColor"/><rect x="9" y="1" width="1" height="1" fill="currentColor"/><rect x="2" y="2" width="1" height="1" fill="currentColor"/><rect x="3" y="2" width="1" height="1" fill="currentColor"/><rect x="4" y="2" width="1" height="1" fill="currentColor"/><rect x="5" y="2" width="1" height="1" fill="currentColor"/><rect x="6" y="2" width="1" height="1" fill="currentColor"/><rect x="7" y="2" width="1" height="1" fill="currentColor"/><rect x="8" y="2" width="1" height="1" fill="currentColor"/><rect x="0" y="3" width="1" height="1" fill="currentColor"/><rect x="1" y="3" width="1" height="1" fill="currentColor"/><rect x="2" y="3" width="1" height="1" fill="currentColor"/><rect x="4" y="3" width="1" height="1" fill="currentColor"/><rect x="5" y="3" width="1" height="1" fill="currentColor"/><rect x="6" y="3" width="1" height="1" fill="currentColor"/><rect x="8" y="3" width="1" height="1" fill="currentColor"/><rect x="9" y="3" width="1" height="1" fill="currentColor"/><rect x="10" y="3" width="1" height="1" fill="currentColor"/><rect x="0" y="4" width="1" height="1" fill="currentColor"/><rect x="1" y="4" width="1" height="1" fill="currentColor"/><rect x="2" y="4" width="1" height="1" fill="currentColor"/><rect x="3" y="4" width="1" height="1" fill="currentColor"/><rect x="4" y="4" width="1" height="1" fill="currentColor"/><rect x="5" y="4" width="1" height="1" fill="currentColor"/><rect x="6" y="4" width="1" height="1" fill="currentColor"/><rect x="7" y="4" width="1" height="1" fill="currentColor"/><rect x="8" y="4" width="1" height="1" fill="currentColor"/><rect x="9" y="4" width="1" height="1" fill="currentColor"/><rect x="10" y="4" width="1" height="1" fill="currentColor"/><rect x="0" y="5" width="1" height="1" fill="currentColor"/><rect x="2" y="5" width="1" height="1" fill="currentColor"/><rect x="4" y="5" width="1" height="1" fill="currentColor"/><rect x="5" y="5" width="1" height="1" fill="currentColor"/><rect x="6" y="5" width="1" height="1" fill="currentColor"/><rect x="8" y="5" width="1" height="1" fill="currentColor"/><rect x="10" y="5" width="1" height="1" fill="currentColor"/><rect x="0" y="6" width="1" height="1" fill="currentColor"/><rect x="3" y="6" width="1" height="1" fill="currentColor"/><rect x="7" y="6" width="1" height="1" fill="currentColor"/><rect x="10" y="6" width="1" height="1" fill="currentColor"/></symbol>
<symbol id="ship" viewBox="0 0 11 8" preserveAspectRatio="xMidYMid meet"><rect x="5" y="0" width="1" height="1" fill="#39d353"/><rect x="5" y="1" width="1" height="1" fill="#39d353"/><rect x="4" y="2" width="1" height="1" fill="#39d353"/><rect x="5" y="2" width="1" height="1" fill="#39d353"/><rect x="6" y="2" width="1" height="1" fill="#39d353"/><rect x="3" y="3" width="1" height="1" fill="#39d353"/><rect x="4" y="3" width="1" height="1" fill="#39d353"/><rect x="5" y="3" width="1" height="1" fill="#39d353"/><rect x="6" y="3" width="1" height="1" fill="#39d353"/><rect x="7" y="3" width="1" height="1" fill="#39d353"/><rect x="1" y="4" width="1" height="1" fill="#39d353"/><rect x="2" y="4" width="1" height="1" fill="#39d353"/><rect x="3" y="4" width="1" height="1" fill="#39d353"/><rect x="4" y="4" width="1" height="1" fill="#39d353"/><rect x="5" y="4" width="1" height="1" fill="#39d353"/><rect x="6" y="4" width="1" height="1" fill="#39d353"/><rect x="7" y="4" width="1" height="1" fill="#39d353"/><rect x="8" y="4" width="1" height="1" fill="#39d353"/><rect x="9" y="4" width="1" height="1" fill="#39d353"/><rect x="0" y="5" width="1" height="1" fill="#39d353"/><rect x="1" y="5" width="1" height="1" fill="#39d353"/><rect x="2" y="5" width="1" height="1" fill="#39d353"/><rect x="3" y="5" width="1" height="1" fill="#39d353"/><rect x="4" y="5" width="1" height="1" fill="#39d353"/><rect x="5" y="5" width="1" height="1" fill="#39d353"/><rect x="6" y="5" width="1" height="1" fill="#39d353"/><rect x="7" y="5" width="1" height="1" fill="#39d353"/><rect x="8" y="5" width="1" height="1" fill="#39d353"/><rect x="9" y="5" width="1" height="1" fill="#39d353"/><rect x="10" y="5" width="1" height="1" fill="#39d353"/><rect x="0" y="6" width="1" height="1" fill="#39d353"/><rect x="4" y="6" width="1" height="1" fill="#39d353"/><rect x="5" y="6" width="1" height="1" fill="#39d353"/><rect x="6" y="6" width="1" height="1" fill="#39d353"/><rect x="10" y="6" width="1" height="1" fill="#39d353"/></symbol>
</defs>

<style>#marchg{animation:march 10.079999999999997s linear infinite}@keyframes march{0%{transform:translateX(0)}4.96032%{transform:translateX(4px)}14.88095%{transform:translateX(-4px)}19.84127%{transform:translateX(0)}100%{transform:translateX(0)}}
#shipg{animation:shipm 10.079999999999997s linear infinite}@keyframes shipm{0.00000%{transform:translate(736px,160px)}19.84127%{transform:translate(736px,160px)}19.84127%{transform:translate(736px,160px)}23.31349%{transform:translate(736px,160px)}23.32341%{transform:translate(750px,160px)}24.50397%{transform:translate(750px,160px)}27.97619%{transform:translate(750px,160px)}27.98611%{transform:translate(736px,160px)}29.16667%{transform:translate(736px,160px)}32.63889%{transform:translate(736px,160px)}32.64881%{transform:translate(736px,160px)}33.82937%{transform:translate(736px,160px)}37.30159%{transform:translate(736px,160px)}37.31151%{transform:translate(736px,160px)}38.49206%{transform:translate(736px,160px)}41.96429%{transform:translate(736px,160px)}41.97421%{transform:translate(736px,160px)}43.15476%{transform:translate(736px,160px)}46.62698%{transform:translate(736px,160px)}46.63690%{transform:translate(736px,160px)}47.81746%{transform:translate(736px,160px)}51.28968%{transform:translate(736px,160px)}51.29960%{transform:translate(736px,160px)}52.48016%{transform:translate(736px,160px)}55.95238%{transform:translate(736px,160px)}55.96230%{transform:translate(750px,160px)}57.14286%{transform:translate(750px,160px)}60.61508%{transform:translate(750px,160px)}60.62500%{transform:translate(750px,160px)}61.80556%{transform:translate(750px,160px)}65.27778%{transform:translate(750px,160px)}65.28770%{transform:translate(750px,160px)}66.46825%{transform:translate(750px,160px)}69.94048%{transform:translate(750px,160px)}69.95040%{transform:translate(750px,160px)}71.13095%{transform:translate(750px,160px)}74.60317%{transform:translate(750px,160px)}74.61310%{transform:translate(750px,160px)}75.79365%{transform:translate(750px,160px)}79.26587%{transform:translate(750px,160px)}79.27579%{transform:translate(750px,160px)}80.45635%{transform:translate(750px,160px)}83.92857%{transform:translate(750px,160px)}83.93849%{transform:translate(750px,160px)}100.00000%{transform:translate(750px,160px)}}
#scan{animation:scanf 10.079999999999997s linear infinite}@keyframes scanf{0%{opacity:.04}50%{opacity:.08}100%{opacity:.04}}
#c51x4{animation:kc51x4 10.079999999999997s linear infinite}@keyframes kc51x4{0%{opacity:1}32.63889%{opacity:0.25}33.43254%{opacity:0.83}37.30159%{opacity:0.20}38.09524%{opacity:0.67}41.96429%{opacity:0.15}42.75794%{opacity:0.50}46.62698%{opacity:0.10}47.42063%{opacity:0.33}51.28968%{opacity:0.05}52.08333%{opacity:0.17}55.95238%{opacity:0.05}56.74603%{opacity:0}100%{opacity:0}}
#c51x5{animation:kc51x5 10.079999999999997s linear infinite}@keyframes kc51x5{0%{opacity:1}23.31349%{opacity:0.30}24.10714%{opacity:0}100%{opacity:0}}
#c52x0{animation:kc52x0 10.079999999999997s linear infinite}@keyframes kc52x0{0%{opacity:1}79.26587%{opacity:0.15}80.05952%{opacity:0.50}83.92857%{opacity:0.15}84.72222%{opacity:0}100%{opacity:0}}
#c52x2{animation:kc52x2 10.079999999999997s linear infinite}@keyframes kc52x2{0%{opacity:1}74.60317%{opacity:0.30}75.39683%{opacity:0}100%{opacity:0}}
#c52x3{animation:kc52x3 10.079999999999997s linear infinite}@keyframes kc52x3{0%{opacity:1}60.61508%{opacity:0.20}61.40873%{opacity:0.67}65.27778%{opacity:0.10}66.07143%{opacity:0.33}69.94048%{opacity:0.10}70.73413%{opacity:0}100%{opacity:0}}
#c52x5{animation:kc52x5 10.079999999999997s linear infinite}@keyframes kc52x5{0%{opacity:1}27.97619%{opacity:0.30}28.76984%{opacity:0}100%{opacity:0}}
#b0{animation:bmb0 10.079999999999997s linear infinite}@keyframes bmb0{0%,19.83135%{transform:translateY(0);opacity:0}19.84127%{transform:translateY(0);opacity:1}23.31349%{transform:translateY(-44px);opacity:1}23.32341%,100%{transform:translateY(-44px);opacity:0}}
#b1{animation:bmb1 10.079999999999997s linear infinite}@keyframes bmb1{0%,24.49405%{transform:translateY(0);opacity:0}24.50397%{transform:translateY(0);opacity:1}27.97619%{transform:translateY(-44px);opacity:1}27.98611%,100%{transform:translateY(-44px);opacity:0}}
#b2{animation:bmb2 10.079999999999997s linear infinite}@keyframes bmb2{0%,29.15675%{transform:translateY(0);opacity:0}29.16667%{transform:translateY(0);opacity:1}32.63889%{transform:translateY(-58px);opacity:1}32.64881%,100%{transform:translateY(-58px);opacity:0}}
#b3{animation:bmb3 10.079999999999997s linear infinite}@keyframes bmb3{0%,33.81944%{transform:translateY(0);opacity:0}33.82937%{transform:translateY(0);opacity:1}37.30159%{transform:translateY(-58px);opacity:1}37.31151%,100%{transform:translateY(-58px);opacity:0}}
#b4{animation:bmb4 10.079999999999997s linear infinite}@keyframes bmb4{0%,38.48214%{transform:translateY(0);opacity:0}38.49206%{transform:translateY(0);opacity:1}41.96429%{transform:translateY(-58px);opacity:1}41.97421%,100%{transform:translateY(-58px);opacity:0}}
#b5{animation:bmb5 10.079999999999997s linear infinite}@keyframes bmb5{0%,43.14484%{transform:translateY(0);opacity:0}43.15476%{transform:translateY(0);opacity:1}46.62698%{transform:translateY(-58px);opacity:1}46.63690%,100%{transform:translateY(-58px);opacity:0}}
#b6{animation:bmb6 10.079999999999997s linear infinite}@keyframes bmb6{0%,47.80754%{transform:translateY(0);opacity:0}47.81746%{transform:translateY(0);opacity:1}51.28968%{transform:translateY(-58px);opacity:1}51.29960%,100%{transform:translateY(-58px);opacity:0}}
#b7{animation:bmb7 10.079999999999997s linear infinite}@keyframes bmb7{0%,52.47024%{transform:translateY(0);opacity:0}52.48016%{transform:translateY(0);opacity:1}55.95238%{transform:translateY(-58px);opacity:1}55.96230%,100%{transform:translateY(-58px);opacity:0}}
#b8{animation:bmb8 10.079999999999997s linear infinite}@keyframes bmb8{0%,57.13294%{transform:translateY(0);opacity:0}57.14286%{transform:translateY(0);opacity:1}60.61508%{transform:translateY(-72px);opacity:1}60.62500%,100%{transform:translateY(-72px);opacity:0}}
#b9{animation:bmb9 10.079999999999997s linear infinite}@keyframes bmb9{0%,61.79563%{transform:translateY(0);opacity:0}61.80556%{transform:translateY(0);opacity:1}65.27778%{transform:translateY(-72px);opacity:1}65.28770%,100%{transform:translateY(-72px);opacity:0}}
#b10{animation:bmb10 10.079999999999997s linear infinite}@keyframes bmb10{0%,66.45833%{transform:translateY(0);opacity:0}66.46825%{transform:translateY(0);opacity:1}69.94048%{transform:translateY(-72px);opacity:1}69.95040%,100%{transform:translateY(-72px);opacity:0}}
#b11{animation:bmb11 10.079999999999997s linear infinite}@keyframes bmb11{0%,71.12103%{transform:translateY(0);opacity:0}71.13095%{transform:translateY(0);opacity:1}74.60317%{transform:translateY(-86px);opacity:1}74.61310%,100%{transform:translateY(-86px);opacity:0}}
#b12{animation:bmb12 10.079999999999997s linear infinite}@keyframes bmb12{0%,75.78373%{transform:translateY(0);opacity:0}75.79365%{transform:translateY(0);opacity:1}79.26587%{transform:translateY(-114px);opacity:1}79.27579%,100%{transform:translateY(-114px);opacity:0}}
#b13{animation:bmb13 10.079999999999997s linear infinite}@keyframes bmb13{0%,80.44643%{transform:translateY(0);opacity:0}80.45635%{transform:translateY(0);opacity:1}83.92857%{transform:translateY(-114px);opacity:1}83.93849%,100%{transform:translateY(-114px);opacity:0}}</style>
<text x="387" y="20" fill="#39d353" font-size="8" font-family="monospace" font-weight="bold" letter-spacing="1" text-anchor="middle">GIT-INVADERS</text><text x="758" y="20" fill="#39d353" font-size="8" font-family="monospace" font-weight="bold" letter-spacing="1" text-anchor="end">COMMITS: 14</text>
<rect x="16" y="36" width="12" height="12" fill="#161b22" rx="1"/><rect x="16" y="50" width="12" height="12" fill="#161b22" rx="1"/><rect x="16" y="64" width="12" height="12" fill="#161b22" rx="1"/><rect x="16" y="78" width="12" height="12" fill="#161b22" rx="1"/><rect x="16" y="92" width="12" height="12" fill="#161b22" rx="1"/><rect x="16" y="106" width="12" height="12" fill="#161b22" rx="1"/><rect x="16" y="120" width="12" height="12" fill="#161b22" rx="1"/><rect x="30" y="36" width="12" height="12" fill="#161b22" rx="1"/><rect x="30" y="50" width="12" height="12" fill="#161b22" rx="1"/><rect x="30" y="64" width="12" height="12" fill="#161b22" rx="1"/><rect x="30" y="78" width="12" height="12" fill="#161b22" rx="1"/><rect x="30" y="92" width="12" height="12" fill="#161b22" rx="1"/><rect x="30" y="106" width="12" height="12" fill="#161b22" rx="1"/><rect x="30" y="120" width="12" height="12" fill="#161b22" rx="1"/><rect x="44" y="36" width="12" height="12" fill="#161b22" rx="1"/><rect x="44" y="50" width="12" height="12" fill="#161b22" rx="1"/><rect x="44" y="64" width="12" height="12" fill="#161b22" rx="1"/><rect x="44" y="78" width="12" height="12" fill="#161b22" rx="1"/><rect x="44" y="92" width="12" height="12" fill="#161b22" rx="1"/><rect x="44" y="106" width="12" height="12" fill="#161b22" rx="1"/><rect x="44" y="120" width="12" height="12" fill="#161b22" rx="1"/><rect x="58" y="36" width="12" height="12" fill="#161b22" rx="1"/><rect x="58" y="50" width="12" height="12" fill="#161b22" rx="1"/><rect x="58" y="64" width="12" height="12" fill="#161b22" rx="1"/><rect x="58" y="78" width="12" height="12" fill="#161b22" rx="1"/><rect x="58" y="92" width="12" height="12" fill="#161b22" rx="1"/><rect x="58" y="106" width="12" height="12" fill="#161b22" rx="1"/><rect x="58" y="120" width="12" height="12" fill="#161b22" rx="1"/><rect x="72" y="36" width="12" height="12" fill="#161b22" rx="1"/><rect x="72" y="50" width="12" height="12" fill="#161b22" rx="1"/><rect x="72" y="64" width="12" height="12" fill="#161b22" rx="1"/><rect x="72" y="78" width="12" height="12" fill="#161b22" rx="1"/><rect x="72" y="92" width="12" height="12" fill="#161b22" rx="1"/><rect x="72" y="106" width="12" height="12" fill="#161b22" rx="1"/><rect x="72" y="120" width="12" height="12" fill="#161b22" rx="1"/><rect x="86" y="36" width="12" height="12" fill="#161b22" rx="1"/><rect x="86" y="50" width="12" height="12" fill="#161b22" rx="1"/><rect x="86" y="64" width="12" height="12" fill="#161b22" rx="1"/><rect x="86" y="78" width="12" height="12" fill="#161b22" rx="1"/><rect x="86" y="92" width="12" height="12" fill="#161b22" rx="1"/><rect x="86" y="106" width="12" height="12" fill="#161b22" rx="1"/><rect x="86" y="120" width="12" height="12" fill="#161b22" rx="1"/><rect x="100" y="36" width="12" height="12" fill="#161b22" rx="1"/><rect x="100" y="50" width="12" height="12" fill="#161b22" rx="1"/><rect x="100" y="64" width="12" height="12" fill="#161b22" rx="1"/><rect x="100" y="78" width="12" height="12" fill="#161b22" rx="1"/><rect x="100" y="92" width="12" height="12" fill="#161b22" rx="1"/><rect x="100" y="106" width="12" height="12" fill="#161b22" rx="1"/><rect x="100" y="120" width="12" height="12" fill="#161b22" rx="1"/><rect x="114" y="36" width="12" height="12" fill="#161b22" rx="1"/><rect x="114" y="50" width="12" height="12" fill="#161b22" rx="1"/><rect x="114" y="64" width="12" height="12" fill="#161b22" rx="1"/><rect x="114" y="78" width="12" height="12" fill="#161b22" rx="1"/><rect x="114" y="92" width="12" height="12" fill="#161b22" rx="1"/><rect x="114" y="106" width="12" height="12" fill="#161b22" rx="1"/><rect x="114" y="120" width="12" height="12" fill="#161b22" rx="1"/><rect x="128" y="36" width="12" height="12" fill="#161b22" rx="1"/><rect x="128" y="50" width="12" height="12" fill="#161b22" rx="1"/><rect x="128" y="64" width="12" height="12" fill="#161b22" rx="1"/><rect x="128" y="78" width="12" height="12" fill="#161b22" rx="1"/><rect x="128" y="92" width="12" height="12" fill="#161b22" rx="1"/><rect x="128" y="106" width="12" height="12" fill="#161b22" rx="1"/><rect x="128" y="120" width="12" height="12" fill="#161b22" rx="1"/><rect x="142" y="36" width="12" height="12" fill="#161b22" rx="1"/><rect x="142" y="50" width="12" height="12" fill="#161b22" rx="1"/><rect x="142" y="64" width="12" height="12" fill="#161b22" rx="1"/><rect x="142" y="78" width="12" height="12" fill="#161b22" rx="1"/><rect x="142" y="92" width="12" height="12" fill="#161b22" rx="1"/><rect x="142" y="106" width="12" height="12" fill="#161b22" rx="1"/><rect x="142" y="120" width="12" height="12" fill="#161b22" rx="1"/><rect x="156" y="36" width="12" height="12" fill="#161b22" rx="1"/><rect x="156" y="50" width="12" height="12" fill="#161b22" rx="1"/><rect x="156" y="64" width="12" height="12" fill="#161b22" rx="1"/><rect x="156" y="78" width="12" height="12" fill="#161b22" rx="1"/><rect x="156" y="92" width="12" height="12" fill="#161b22" rx="1"/><rect x="156" y="106" width="12" height="12" fill="#161b22" rx="1"/><rect x="156" y="120" width="12" height="12" fill="#161b22" rx="1"/><rect x="170" y="36" width="12" height="12" fill="#161b22" rx="1"/><rect x="170" y="50" width="12" height="12" fill="#161b22" rx="1"/><rect x="170" y="64" width="12" height="12" fill="#161b22" rx="1"/><rect x="170" y="78" width="12" height="12" fill="#161b22" rx="1"/><rect x="170" y="92" width="12" height="12" fill="#161b22" rx="1"/><rect x="170" y="106" width="12" height="12" fill="#161b22" rx="1"/><rect x="170" y="120" width="12" height="12" fill="#161b22" rx="1"/><rect x="184" y="36" width="12" height="12" fill="#161b22" rx="1"/><rect x="184" y="50" width="12" height="12" fill="#161b22" rx="1"/><rect x="184" y="64" width="12" height="12" fill="#161b22" rx="1"/><rect x="184" y="78" width="12" height="12" fill="#161b22" rx="1"/><rect x="184" y="92" width="12" height="12" fill="#161b22" rx="1"/><rect x="184" y="106" width="12" height="12" fill="#161b22" rx="1"/><rect x="184" y="120" width="12" height="12" fill="#161b22" rx="1"/><rect x="198" y="36" width="12" height="12" fill="#161b22" rx="1"/><rect x="198" y="50" width="12" height="12" fill="#161b22" rx="1"/><rect x="198" y="64" width="12" height="12" fill="#161b22" rx="1"/><rect x="198" y="78" width="12" height="12" fill="#161b22" rx="1"/><rect x="198" y="92" width="12" height="12" fill="#161b22" rx="1"/><rect x="198" y="106" width="12" height="12" fill="#161b22" rx="1"/><rect x="198" y="120" width="12" height="12" fill="#161b22" rx="1"/><rect x="212" y="36" width="12" height="12" fill="#161b22" rx="1"/><rect x="212" y="50" width="12" height="12" fill="#161b22" rx="1"/><rect x="212" y="64" width="12" height="12" fill="#161b22" rx="1"/><rect x="212" y="78" width="12" height="12" fill="#161b22" rx="1"/><rect x="212" y="92" width="12" height="12" fill="#161b22" rx="1"/><rect x="212" y="106" width="12" height="12" fill="#161b22" rx="1"/><rect x="212" y="120" width="12" height="12" fill="#161b22" rx="1"/><rect x="226" y="36" width="12" height="12" fill="#161b22" rx="1"/><rect x="226" y="50" width="12" height="12" fill="#161b22" rx="1"/><rect x="226" y="64" width="12" height="12" fill="#161b22" rx="1"/><rect x="226" y="78" width="12" height="12" fill="#161b22" rx="1"/><rect x="226" y="92" width="12" height="12" fill="#161b22" rx="1"/><rect x="226" y="106" width="12" height="12" fill="#161b22" rx="1"/><rect x="226" y="120" width="12" height="12" fill="#161b22" rx="1"/><rect x="240" y="36" width="12" height="12" fill="#161b22" rx="1"/><rect x="240" y="50" width="12" height="12" fill="#161b22" rx="1"/><rect x="240" y="64" width="12" height="12" fill="#161b22" rx="1"/><rect x="240" y="78" width="12" height="12" fill="#161b22" rx="1"/><rect x="240" y="92" width="12" height="12" fill="#161b22" rx="1"/><rect x="240" y="106" width="12" height="12" fill="#161b22" rx="1"/><rect x="240" y="120" width="12" height="12" fill="#161b22" rx="1"/><rect x="254" y="36" width="12" height="12" fill="#161b22" rx="1"/><rect x="254" y="50" width="12" height="12" fill="#161b22" rx="1"/><rect x="254" y="64" width="12" height="12" fill="#161b22" rx="1"/><rect x="254" y="78" width="12" height="12" fill="#161b22" rx="1"/><rect x="254" y="92" width="12" height="12" fill="#161b22" rx="1"/><rect x="254" y="106" width="12" height="12" fill="#161b22" rx="1"/><rect x="254" y="120" width="12" height="12" fill="#161b22" rx="1"/><rect x="268" y="36" width="12" height="12" fill="#161b22" rx="1"/><rect x="268" y="50" width="12" height="12" fill="#161b22" rx="1"/><rect x="268" y="64" width="12" height="12" fill="#161b22" rx="1"/><rect x="268" y="78" width="12" height="12" fill="#161b22" rx="1"/><rect x="268" y="92" width="12" height="12" fill="#161b22" rx="1"/><rect x="268" y="106" width="12" height="12" fill="#161b22" rx="1"/><rect x="268" y="120" width="12" height="12" fill="#161b22" rx="1"/><rect x="282" y="36" width="12" height="12" fill="#161b22" rx="1"/><rect x="282" y="50" width="12" height="12" fill="#161b22" rx="1"/><rect x="282" y="64" width="12" height="12" fill="#161b22" rx="1"/><rect x="282" y="78" width="12" height="12" fill="#161b22" rx="1"/><rect x="282" y="92" width="12" height="12" fill="#161b22" rx="1"/><rect x="282" y="106" width="12" height="12" fill="#161b22" rx="1"/><rect x="282" y="120" width="12" height="12" fill="#161b22" rx="1"/><rect x="296" y="36" width="12" height="12" fill="#161b22" rx="1"/><rect x="296" y="50" width="12" height="12" fill="#161b22" rx="1"/><rect x="296" y="64" width="12" height="12" fill="#161b22" rx="1"/><rect x="296" y="78" width="12" height="12" fill="#161b22" rx="1"/><rect x="296" y="92" width="12" height="12" fill="#161b22" rx="1"/><rect x="296" y="106" width="12" height="12" fill="#161b22" rx="1"/><rect x="296" y="120" width="12" height="12" fill="#161b22" rx="1"/><rect x="310" y="36" width="12" height="12" fill="#161b22" rx="1"/><rect x="310" y="50" width="12" height="12" fill="#161b22" rx="1"/><rect x="310" y="64" width="12" height="12" fill="#161b22" rx="1"/><rect x="310" y="78" width="12" height="12" fill="#161b22" rx="1"/><rect x="310" y="92" width="12" height="12" fill="#161b22" rx="1"/><rect x="310" y="106" width="12" height="12" fill="#161b22" rx="1"/><rect x="310" y="120" width="12" height="12" fill="#161b22" rx="1"/><rect x="324" y="36" width="12" height="12" fill="#161b22" rx="1"/><rect x="324" y="50" width="12" height="12" fill="#161b22" rx="1"/><rect x="324" y="64" width="12" height="12" fill="#161b22" rx="1"/><rect x="324" y="78" width="12" height="12" fill="#161b22" rx="1"/><rect x="324" y="92" width="12" height="12" fill="#161b22" rx="1"/><rect x="324" y="106" width="12" height="12" fill="#161b22" rx="1"/><rect x="324" y="120" width="12" height="12" fill="#161b22" rx="1"/><rect x="338" y="36" width="12" height="12" fill="#161b22" rx="1"/><rect x="338" y="50" width="12" height="12" fill="#161b22" rx="1"/><rect x="338" y="64" width="12" height="12" fill="#161b22" rx="1"/><rect x="338" y="78" width="12" height="12" fill="#161b22" rx="1"/><rect x="338" y="92" width="12" height="12" fill="#161b22" rx="1"/><rect x="338" y="106" width="12" height="12" fill="#161b22" rx="1"/><rect x="338" y="120" width="12" height="12" fill="#161b22" rx="1"/><rect x="352" y="36" width="12" height="12" fill="#161b22" rx="1"/><rect x="352" y="50" width="12" height="12" fill="#161b22" rx="1"/><rect x="352" y="64" width="12" height="12" fill="#161b22" rx="1"/><rect x="352" y="78" width="12" height="12" fill="#161b22" rx="1"/><rect x="352" y="92" width="12" height="12" fill="#161b22" rx="1"/><rect x="352" y="106" width="12" height="12" fill="#161b22" rx="1"/><rect x="352" y="120" width="12" height="12" fill="#161b22" rx="1"/><rect x="366" y="36" width="12" height="12" fill="#161b22" rx="1"/><rect x="366" y="50" width="12" height="12" fill="#161b22" rx="1"/><rect x="366" y="64" width="12" height="12" fill="#161b22" rx="1"/><rect x="366" y="78" width="12" height="12" fill="#161b22" rx="1"/><rect x="366" y="92" width="12" height="12" fill="#161b22" rx="1"/><rect x="366" y="106" width="12" height="12" fill="#161b22" rx="1"/><rect x="366" y="120" width="12" height="12" fill="#161b22" rx="1"/><rect x="380" y="36" width="12" height="12" fill="#161b22" rx="1"/><rect x="380" y="50" width="12" height="12" fill="#161b22" rx="1"/><rect x="380" y="64" width="12" height="12" fill="#161b22" rx="1"/><rect x="380" y="78" width="12" height="12" fill="#161b22" rx="1"/><rect x="380" y="92" width="12" height="12" fill="#161b22" rx="1"/><rect x="380" y="106" width="12" height="12" fill="#161b22" rx="1"/><rect x="380" y="120" width="12" height="12" fill="#161b22" rx="1"/><rect x="394" y="36" width="12" height="12" fill="#161b22" rx="1"/><rect x="394" y="50" width="12" height="12" fill="#161b22" rx="1"/><rect x="394" y="64" width="12" height="12" fill="#161b22" rx="1"/><rect x="394" y="78" width="12" height="12" fill="#161b22" rx="1"/><rect x="394" y="92" width="12" height="12" fill="#161b22" rx="1"/><rect x="394" y="106" width="12" height="12" fill="#161b22" rx="1"/><rect x="394" y="120" width="12" height="12" fill="#161b22" rx="1"/><rect x="408" y="36" width="12" height="12" fill="#161b22" rx="1"/><rect x="408" y="50" width="12" height="12" fill="#161b22" rx="1"/><rect x="408" y="64" width="12" height="12" fill="#161b22" rx="1"/><rect x="408" y="78" width="12" height="12" fill="#161b22" rx="1"/><rect x="408" y="92" width="12" height="12" fill="#161b22" rx="1"/><rect x="408" y="106" width="12" height="12" fill="#161b22" rx="1"/><rect x="408" y="120" width="12" height="12" fill="#161b22" rx="1"/><rect x="422" y="36" width="12" height="12" fill="#161b22" rx="1"/><rect x="422" y="50" width="12" height="12" fill="#161b22" rx="1"/><rect x="422" y="64" width="12" height="12" fill="#161b22" rx="1"/><rect x="422" y="78" width="12" height="12" fill="#161b22" rx="1"/><rect x="422" y="92" width="12" height="12" fill="#161b22" rx="1"/><rect x="422" y="106" width="12" height="12" fill="#161b22" rx="1"/><rect x="422" y="120" width="12" height="12" fill="#161b22" rx="1"/><rect x="436" y="36" width="12" height="12" fill="#161b22" rx="1"/><rect x="436" y="50" width="12" height="12" fill="#161b22" rx="1"/><rect x="436" y="64" width="12" height="12" fill="#161b22" rx="1"/><rect x="436" y="78" width="12" height="12" fill="#161b22" rx="1"/><rect x="436" y="92" width="12" height="12" fill="#161b22" rx="1"/><rect x="436" y="106" width="12" height="12" fill="#161b22" rx="1"/><rect x="436" y="120" width="12" height="12" fill="#161b22" rx="1"/><rect x="450" y="36" width="12" height="12" fill="#161b22" rx="1"/><rect x="450" y="50" width="12" height="12" fill="#161b22" rx="1"/><rect x="450" y="64" width="12" height="12" fill="#161b22" rx="1"/><rect x="450" y="78" width="12" height="12" fill="#161b22" rx="1"/><rect x="450" y="92" width="12" height="12" fill="#161b22" rx="1"/><rect x="450" y="106" width="12" height="12" fill="#161b22" rx="1"/><rect x="450" y="120" width="12" height="12" fill="#161b22" rx="1"/><rect x="464" y="36" width="12" height="12" fill="#161b22" rx="1"/><rect x="464" y="50" width="12" height="12" fill="#161b22" rx="1"/><rect x="464" y="64" width="12" height="12" fill="#161b22" rx="1"/><rect x="464" y="78" width="12" height="12" fill="#161b22" rx="1"/><rect x="464" y="92" width="12" height="12" fill="#161b22" rx="1"/><rect x="464" y="106" width="12" height="12" fill="#161b22" rx="1"/><rect x="464" y="120" width="12" height="12" fill="#161b22" rx="1"/><rect x="478" y="36" width="12" height="12" fill="#161b22" rx="1"/><rect x="478" y="50" width="12" height="12" fill="#161b22" rx="1"/><rect x="478" y="64" width="12" height="12" fill="#161b22" rx="1"/><rect x="478" y="78" width="12" height="12" fill="#161b22" rx="1"/><rect x="478" y="92" width="12" height="12" fill="#161b22" rx="1"/><rect x="478" y="106" width="12" height="12" fill="#161b22" rx="1"/><rect x="478" y="120" width="12" height="12" fill="#161b22" rx="1"/><rect x="492" y="36" width="12" height="12" fill="#161b22" rx="1"/><rect x="492" y="50" width="12" height="12" fill="#161b22" rx="1"/><rect x="492" y="64" width="12" height="12" fill="#161b22" rx="1"/><rect x="492" y="78" width="12" height="12" fill="#161b22" rx="1"/><rect x="492" y="92" width="12" height="12" fill="#161b22" rx="1"/><rect x="492" y="106" width="12" height="12" fill="#161b22" rx="1"/><rect x="492" y="120" width="12" height="12" fill="#161b22" rx="1"/><rect x="506" y="36" width="12" height="12" fill="#161b22" rx="1"/><rect x="506" y="50" width="12" height="12" fill="#161b22" rx="1"/><rect x="506" y="64" width="12" height="12" fill="#161b22" rx="1"/><rect x="506" y="78" width="12" height="12" fill="#161b22" rx="1"/><rect x="506" y="92" width="12" height="12" fill="#161b22" rx="1"/><rect x="506" y="106" width="12" height="12" fill="#161b22" rx="1"/><rect x="506" y="120" width="12" height="12" fill="#161b22" rx="1"/><rect x="520" y="36" width="12" height="12" fill="#161b22" rx="1"/><rect x="520" y="50" width="12" height="12" fill="#161b22" rx="1"/><rect x="520" y="64" width="12" height="12" fill="#161b22" rx="1"/><rect x="520" y="78" width="12" height="12" fill="#161b22" rx="1"/><rect x="520" y="92" width="12" height="12" fill="#161b22" rx="1"/><rect x="520" y="106" width="12" height="12" fill="#161b22" rx="1"/><rect x="520" y="120" width="12" height="12" fill="#161b22" rx="1"/><rect x="534" y="36" width="12" height="12" fill="#161b22" rx="1"/><rect x="534" y="50" width="12" height="12" fill="#161b22" rx="1"/><rect x="534" y="64" width="12" height="12" fill="#161b22" rx="1"/><rect x="534" y="78" width="12" height="12" fill="#161b22" rx="1"/><rect x="534" y="92" width="12" height="12" fill="#161b22" rx="1"/><rect x="534" y="106" width="12" height="12" fill="#161b22" rx="1"/><rect x="534" y="120" width="12" height="12" fill="#161b22" rx="1"/><rect x="548" y="36" width="12" height="12" fill="#161b22" rx="1"/><rect x="548" y="50" width="12" height="12" fill="#161b22" rx="1"/><rect x="548" y="64" width="12" height="12" fill="#161b22" rx="1"/><rect x="548" y="78" width="12" height="12" fill="#161b22" rx="1"/><rect x="548" y="92" width="12" height="12" fill="#161b22" rx="1"/><rect x="548" y="106" width="12" height="12" fill="#161b22" rx="1"/><rect x="548" y="120" width="12" height="12" fill="#161b22" rx="1"/><rect x="562" y="36" width="12" height="12" fill="#161b22" rx="1"/><rect x="562" y="50" width="12" height="12" fill="#161b22" rx="1"/><rect x="562" y="64" width="12" height="12" fill="#161b22" rx="1"/><rect x="562" y="78" width="12" height="12" fill="#161b22" rx="1"/><rect x="562" y="92" width="12" height="12" fill="#161b22" rx="1"/><rect x="562" y="106" width="12" height="12" fill="#161b22" rx="1"/><rect x="562" y="120" width="12" height="12" fill="#161b22" rx="1"/><rect x="576" y="36" width="12" height="12" fill="#161b22" rx="1"/><rect x="576" y="50" width="12" height="12" fill="#161b22" rx="1"/><rect x="576" y="64" width="12" height="12" fill="#161b22" rx="1"/><rect x="576" y="78" width="12" height="12" fill="#161b22" rx="1"/><rect x="576" y="92" width="12" height="12" fill="#161b22" rx="1"/><rect x="576" y="106" width="12" height="12" fill="#161b22" rx="1"/><rect x="576" y="120" width="12" height="12" fill="#161b22" rx="1"/><rect x="590" y="36" width="12" height="12" fill="#161b22" rx="1"/><rect x="590" y="50" width="12" height="12" fill="#161b22" rx="1"/><rect x="590" y="64" width="12" height="12" fill="#161b22" rx="1"/><rect x="590" y="78" width="12" height="12" fill="#161b22" rx="1"/><rect x="590" y="92" width="12" height="12" fill="#161b22" rx="1"/><rect x="590" y="106" width="12" height="12" fill="#161b22" rx="1"/><rect x="590" y="120" width="12" height="12" fill="#161b22" rx="1"/><rect x="604" y="36" width="12" height="12" fill="#161b22" rx="1"/><rect x="604" y="50" width="12" height="12" fill="#161b22" rx="1"/><rect x="604" y="64" width="12" height="12" fill="#161b22" rx="1"/><rect x="604" y="78" width="12" height="12" fill="#161b22" rx="1"/><rect x="604" y="92" width="12" height="12" fill="#161b22" rx="1"/><rect x="604" y="106" width="12" height="12" fill="#161b22" rx="1"/><rect x="604" y="120" width="12" height="12" fill="#161b22" rx="1"/><rect x="618" y="36" width="12" height="12" fill="#161b22" rx="1"/><rect x="618" y="50" width="12" height="12" fill="#161b22" rx="1"/><rect x="618" y="64" width="12" height="12" fill="#161b22" rx="1"/><rect x="618" y="78" width="12" height="12" fill="#161b22" rx="1"/><rect x="618" y="92" width="12" height="12" fill="#161b22" rx="1"/><rect x="618" y="106" width="12" height="12" fill="#161b22" rx="1"/><rect x="618" y="120" width="12" height="12" fill="#161b22" rx="1"/><rect x="632" y="36" width="12" height="12" fill="#161b22" rx="1"/><rect x="632" y="50" width="12" height="12" fill="#161b22" rx="1"/><rect x="632" y="64" width="12" height="12" fill="#161b22" rx="1"/><rect x="632" y="78" width="12" height="12" fill="#161b22" rx="1"/><rect x="632" y="92" width="12" height="12" fill="#161b22" rx="1"/><rect x="632" y="106" width="12" height="12" fill="#161b22" rx="1"/><rect x="632" y="120" width="12" height="12" fill="#161b22" rx="1"/><rect x="646" y="36" width="12" height="12" fill="#161b22" rx="1"/><rect x="646" y="50" width="12" height="12" fill="#161b22" rx="1"/><rect x="646" y="64" width="12" height="12" fill="#161b22" rx="1"/><rect x="646" y="78" width="12" height="12" fill="#161b22" rx="1"/><rect x="646" y="92" width="12" height="12" fill="#161b22" rx="1"/><rect x="646" y="106" width="12" height="12" fill="#161b22" rx="1"/><rect x="646" y="120" width="12" height="12" fill="#161b22" rx="1"/><rect x="660" y="36" width="12" height="12" fill="#161b22" rx="1"/><rect x="660" y="50" width="12" height="12" fill="#161b22" rx="1"/><rect x="660" y="64" width="12" height="12" fill="#161b22" rx="1"/><rect x="660" y="78" width="12" height="12" fill="#161b22" rx="1"/><rect x="660" y="92" width="12" height="12" fill="#161b22" rx="1"/><rect x="660" y="106" width="12" height="12" fill="#161b22" rx="1"/><rect x="660" y="120" width="12" height="12" fill="#161b22" rx="1"/><rect x="674" y="36" width="12" height="12" fill="#161b22" rx="1"/><rect x="674" y="50" width="12" height="12" fill="#161b22" rx="1"/><rect x="674" y="64" width="12" height="12" fill="#161b22" rx="1"/><rect x="674" y="78" width="12" height="12" fill="#161b22" rx="1"/><rect x="674" y="92" width="12" height="12" fill="#161b22" rx="1"/><rect x="674" y="106" width="12" height="12" fill="#161b22" rx="1"/><rect x="674" y="120" width="12" height="12" fill="#161b22" rx="1"/><rect x="688" y="36" width="12" height="12" fill="#161b22" rx="1"/><rect x="688" y="50" width="12" height="12" fill="#161b22" rx="1"/><rect x="688" y="64" width="12" height="12" fill="#161b22" rx="1"/><rect x="688" y="78" width="12" height="12" fill="#161b22" rx="1"/><rect x="688" y="92" width="12" height="12" fill="#161b22" rx="1"/><rect x="688" y="106" width="12" height="12" fill="#161b22" rx="1"/><rect x="688" y="120" width="12" height="12" fill="#161b22" rx="1"/><rect x="702" y="36" width="12" height="12" fill="#161b22" rx="1"/><rect x="702" y="50" width="12" height="12" fill="#161b22" rx="1"/><rect x="702" y="64" width="12" height="12" fill="#161b22" rx="1"/><rect x="702" y="78" width="12" height="12" fill="#161b22" rx="1"/><rect x="702" y="92" width="12" height="12" fill="#161b22" rx="1"/><rect x="702" y="106" width="12" height="12" fill="#161b22" rx="1"/><rect x="702" y="120" width="12" height="12" fill="#161b22" rx="1"/><rect x="716" y="36" width="12" height="12" fill="#161b22" rx="1"/><rect x="716" y="50" width="12" height="12" fill="#161b22" rx="1"/><rect x="716" y="64" width="12" height="12" fill="#161b22" rx="1"/><rect x="716" y="78" width="12" height="12" fill="#161b22" rx="1"/><rect x="716" y="92" width="12" height="12" fill="#161b22" rx="1"/><rect x="716" y="106" width="12" height="12" fill="#161b22" rx="1"/><rect x="716" y="120" width="12" height="12" fill="#161b22" rx="1"/><rect x="730" y="36" width="12" height="12" fill="#161b22" rx="1"/><rect x="730" y="50" width="12" height="12" fill="#161b22" rx="1"/><rect x="730" y="64" width="12" height="12" fill="#161b22" rx="1"/><rect x="730" y="78" width="12" height="12" fill="#161b22" rx="1"/><rect x="730" y="92" width="12" height="12" fill="#161b22" rx="1"/><rect x="730" y="106" width="12" height="12" fill="#161b22" rx="1"/><rect x="730" y="120" width="12" height="12" fill="#161b22" rx="1"/><rect x="744" y="36" width="12" height="12" fill="#161b22" rx="1"/><rect x="744" y="50" width="12" height="12" fill="#161b22" rx="1"/><rect x="744" y="64" width="12" height="12" fill="#161b22" rx="1"/><rect x="744" y="78" width="12" height="12" fill="#161b22" rx="1"/><rect x="744" y="92" width="12" height="12" fill="#161b22" rx="1"/><rect x="744" y="106" width="12" height="12" fill="#161b22" rx="1"/><rect x="744" y="120" width="12" height="12" fill="#161b22" rx="1"/>
<g id="marchg"><g id="c51x4" color="#2ad8a4"><rect x="730" y="92" width="12" height="12" fill="#2ad8a4" opacity="0.15" rx="1"/><use href="#a4" x="730" y="92" width="12" height="12"/></g><g id="c51x5" color="#4eb0f1"><rect x="730" y="106" width="12" height="12" fill="#4eb0f1" opacity="0.15" rx="1"/><use href="#a2" x="730" y="106" width="12" height="12"/></g><g id="c52x0" color="#44bae3"><rect x="744" y="36" width="12" height="12" fill="#44bae3" opacity="0.15" rx="1"/><use href="#a3" x="744" y="36" width="12" height="12"/></g><g id="c52x2" color="#4eb0f1"><rect x="744" y="64" width="12" height="12" fill="#4eb0f1" opacity="0.15" rx="1"/><use href="#a2" x="744" y="64" width="12" height="12"/></g><g id="c52x3" color="#3ac5d4"><rect x="744" y="78" width="12" height="12" fill="#3ac5d4" opacity="0.15" rx="1"/><use href="#a4" x="744" y="78" width="12" height="12"/></g><g id="c52x5" color="#4eb0f1"><rect x="744" y="106" width="12" height="12" fill="#4eb0f1" opacity="0.15" rx="1"/><use href="#a2" x="744" y="106" width="12" height="12"/></g></g>
<g clip-path="url(#bulletclip)"><rect id="b0" x="735" y="156" width="2" height="5" fill="#ffffff" opacity="0" rx="1"/><rect id="b1" x="749" y="156" width="2" height="5" fill="#ffffff" opacity="0" rx="1"/><rect id="b2" x="735" y="156" width="2" height="5" fill="#ffffff" opacity="0" rx="1"/><rect id="b3" x="735" y="156" width="2" height="5" fill="#ffffff" opacity="0" rx="1"/><rect id="b4" x="735" y="156" width="2" height="5" fill="#ffffff" opacity="0" rx="1"/><rect id="b5" x="735" y="156" width="2" height="5" fill="#ffffff" opacity="0" rx="1"/><rect id="b6" x="735" y="156" width="2" height="5" fill="#ffffff" opacity="0" rx="1"/><rect id="b7" x="735" y="156" width="2" height="5" fill="#ffffff" opacity="0" rx="1"/><rect id="b8" x="749" y="156" width="2" height="5" fill="#ffffff" opacity="0" rx="1"/><rect id="b9" x="749" y="156" width="2" height="5" fill="#ffffff" opacity="0" rx="1"/><rect id="b10" x="749" y="156" width="2" height="5" fill="#ffffff" opacity="0" rx="1"/><rect id="b11" x="749" y="156" width="2" height="5" fill="#ffffff" opacity="0" rx="1"/><rect id="b12" x="749" y="156" width="2" height="5" fill="#ffffff" opacity="0" rx="1"/><rect id="b13" x="749" y="156" width="2" height="5" fill="#ffffff" opacity="0" rx="1"/></g>
<line x1="16" y1="174" x2="758" y2="174" stroke="#39d353" stroke-width="1" opacity=".5"/>
<g id="shipg"><use href="#ship" x="-7" y="-9" width="14" height="10"/></g>
<rect id="scan" width="774" height="202" fill="none" stroke="#39d353" stroke-width="2" opacity=".04" pointer-events="none"/>
</svg>